<svg xmlns:xlink="http://www.w3.org/1999/xlink" version="1.1" class="highcharts-root" style="font-family:&quot;Lucida Grande&quot;, &quot;Lucida Sans Unicode&quot;, Arial, Helvetica, sans-serif;font-size:12px;" xmlns="http://www.w3.org/2000/svg" width="600" height="600" viewBox="0 0 600 600"><title id="highcharts-title-4">Newspaper, Periodical, Book, and Directory Publishers: NAICS 5111</title><desc>Created with Highcharts 6.1.0</desc><defs><clipPath id="highcharts-mrora3e-41"><rect x="0" y="0" width="521" height="373" fill="none"></rect></clipPath></defs><rect fill="#ffffff" class="highcharts-background" x="0" y="0" width="600" height="600" rx="0" ry="0"></rect><rect fill="none" class="highcharts-plot-background" x="69" y="117" width="521" height="373"></rect><g class="highcharts-grid highcharts-xaxis-grid "><path fill="none" class="highcharts-grid-line" d="M 126.5 117 L 126.5 490" opacity="1"></path><path fill="none" class="highcharts-grid-line" d="M 184.5 117 L 184.5 490" opacity="1"></path><path fill="none" class="highcharts-grid-line" d="M 242.5 117 L 242.5 490" opacity="1"></path><path fill="none" class="highcharts-grid-line" d="M 300.5 117 L 300.5 490" opacity="1"></path><path fill="none" class="highcharts-grid-line" d="M 357.5 117 L 357.5 490" opacity="1"></path><path fill="none" class="highcharts-grid-line" d="M 415.5 117 L 415.5 490" opacity="1"></path><path fill="none" class="highcharts-grid-line" d="M 473.5 117 L 473.5 490" opacity="1"></path><path fill="none" class="highcharts-grid-line" d="M 531.5 117 L 531.5 490" opacity="1"></path><path fill="none" class="highcharts-grid-line" d="M 589.5 117 L 589.5 490" opacity="1"></path><path fill="none" class="highcharts-grid-line" d="M 68.5 117 L 68.5 490" opacity="1"></path></g><g class="highcharts-grid highcharts-yaxis-grid "><path fill="none" stroke="#e6e6e6" stroke-width="1" class="highcharts-grid-line" d="M 69 490.5 L 590 490.5" opacity="1"></path><path fill="none" stroke="#e6e6e6" stroke-width="1" class="highcharts-grid-line" d="M 69 428.5 L 590 428.5" opacity="1"></path><path fill="none" stroke="#e6e6e6" stroke-width="1" class="highcharts-grid-line" d="M 69 366.5 L 590 366.5" opacity="1"></path><path fill="none" stroke="#e6e6e6" stroke-width="1" class="highcharts-grid-line" d="M 69 304.5 L 590 304.5" opacity="1"></path><path fill="none" stroke="#e6e6e6" stroke-width="1" class="highcharts-grid-line" d="M 69 241.5 L 590 241.5" opacity="1"></path><path fill="none" stroke="#e6e6e6" stroke-width="1" class="highcharts-grid-line" d="M 69 179.5 L 590 179.5" opacity="1"></path><path fill="none" stroke="#e6e6e6" stroke-width="1" class="highcharts-grid-line" d="M 69 116.5 L 590 116.5" opacity="1"></path></g><rect fill="none" class="highcharts-plot-border" x="69" y="117" width="521" height="373"></rect><g class="highcharts-axis highcharts-xaxis "><path fill="none" class="highcharts-tick" stroke="#ccd6eb" stroke-width="1" d="M 126.5 490 L 126.5 500" opacity="1"></path><path fill="none" class="highcharts-tick" stroke="#ccd6eb" stroke-width="1" d="M 184.5 490 L 184.5 500" opacity="1"></path><path fill="none" class="highcharts-tick" stroke="#ccd6eb" stroke-width="1" d="M 242.5 490 L 242.5 500" opacity="1"></path><path fill="none" class="highcharts-tick" stroke="#ccd6eb" stroke-width="1" d="M 300.5 490 L 300.5 500" opacity="1"></path><path fill="none" class="highcharts-tick" stroke="#ccd6eb" stroke-width="1" d="M 357.5 490 L 357.5 500" opacity="1"></path><path fill="none" class="highcharts-tick" stroke="#ccd6eb" stroke-width="1" d="M 415.5 490 L 415.5 500" opacity="1"></path><path fill="none" class="highcharts-tick" stroke="#ccd6eb" stroke-width="1" d="M 473.5 490 L 473.5 500" opacity="1"></path><path fill="none" class="highcharts-tick" stroke="#ccd6eb" stroke-width="1" d="M 531.5 490 L 531.5 500" opacity="1"></path><path fill="none" class="highcharts-tick" stroke="#ccd6eb" stroke-width="1" d="M 590.5 490 L 590.5 500" opacity="1"></path><path fill="none" class="highcharts-tick" stroke="#ccd6eb" stroke-width="1" d="M 68.5 490 L 68.5 500" opacity="1"></path><path fill="none" class="highcharts-axis-line" stroke="#ccd6eb" stroke-width="1" d="M 69 490.5 L 590 490.5"></path></g><g class="highcharts-axis highcharts-yaxis "><text x="23.75" text-anchor="middle" transform="translate(0,0) rotate(270 23.75 303.5)" class="highcharts-axis-title" style="color:#595959;fill:#595959;" y="303.5" aria-hidden="true"><tspan>Index</tspan></text><path fill="none" class="highcharts-axis-line" d="M 69 117 L 69 490"></path></g><g class="highcharts-series-group"><g class="highcharts-series highcharts-series-0 highcharts-line-series highcharts-color-0 " transform="translate(69,117) scale(1 1)" clip-path="url(#highcharts-mrora3e-41)"><path fill="none" d="M 28.944444444444 214.08645833333333 L 86.833333333333 225.2951083333333 L 144.72222222222 234.25021666666666 L 202.61111111111 228.11747499999998 L 260.5 218.26716666666667 L 318.38888888889 228.92875 L 376.27777777778 214.76096666666666 L 434.16666666667 195.80013333333335" class="highcharts-graph" stroke="#7cb5ec" stroke-width="2" stroke-linejoin="round" stroke-linecap="round" role="region" tabindex="-1" aria-label="Labor Productivity (index), line 1 of 4 with 8 data points."></path></g><g class="highcharts-markers highcharts-series-0 highcharts-line-series highcharts-color-0 " transform="translate(69,117) scale(1 1)" clip-path="none"></g><g class="highcharts-series highcharts-series-1 highcharts-line-series highcharts-color-1 " transform="translate(69,117) scale(1 1)" clip-path="url(#highcharts-mrora3e-41)"><path fill="none" d="M 28.944444444444 282.3361333333333 L 86.833333333333 292.9510916666667 L 144.72222222222 306.23921666666666 L 202.61111111111 316.369275 L 260.5 319.110825 L 318.38888888889 325.0663916666667 L 376.27777777778 331.43536666666665 L 434.16666666667 333.807025" class="highcharts-graph" stroke="#434348" stroke-width="2" stroke-linejoin="round" stroke-linecap="round" role="region" tabindex="-1" aria-label="Output (index), line 2 of 4 with 8 data points."></path></g><g class="highcharts-markers highcharts-series-1 highcharts-line-series highcharts-color-1 " transform="translate(69,117) scale(1 1)" clip-path="none"></g><g class="highcharts-series highcharts-series-2 highcharts-line-series highcharts-color-2 " transform="translate(69,117) scale(1 1)" clip-path="url(#highcharts-mrora3e-41)"><path fill="none" d="M 28.944444444444 261.39529166666665 L 86.833333333333 263.80425 L 144.72222222222 271.553325 L 202.61111111111 288.394275 L 260.5 298.82584166666663 L 318.38888888889 297.8373916666667 L 376.27777777778 314.8430833333333 L 434.16666666667 328.76530833333334 L 492.05555555556 341.0214666666667" class="highcharts-graph" stroke="#90ed7d" stroke-width="2" stroke-linejoin="round" stroke-linecap="round" role="region" tabindex="-1" aria-label="Labor Hours (index), line 3 of 4 with 9 data points."></path></g><g class="highcharts-markers highcharts-series-2 highcharts-line-series highcharts-color-2 " transform="translate(69,117) scale(1 1)" clip-path="none"></g><g class="highcharts-series highcharts-series-3 highcharts-line-series highcharts-color-3 " transform="translate(69,117) scale(1 1)" clip-path="url(#highcharts-mrora3e-41)"><path fill="none" d="M 28.944444444444 139.045075 L 86.833333333333 113.85825 L 144.72222222222 84.19231666666673 L 202.61111111111 85.11238333333336 L 260.5 83.68876666666671 L 318.38888888889 49.11788333333328 L 376.27777777778 60.14314166666662 L 434.16666666667 68.90553333333332" class="highcharts-graph" stroke="#f7a35c" stroke-width="2" stroke-linejoin="round" stroke-linecap="round" role="region" tabindex="-1" aria-label="Unit Labor Cost (index), line 4 of 4 with 8 data points."></path></g><g class="highcharts-markers highcharts-series-3 highcharts-line-series highcharts-color-3 " transform="translate(69,117) scale(1 1)" clip-path="none"></g></g><text x="300" text-anchor="middle" class="highcharts-title" style="color:#333333;font-size:18px;fill:#333333;" y="24" aria-hidden="true"><tspan>Newspaper, Periodical, Book, and Directory Publishers: NAICS</tspan><tspan dy="21" x="300">5111</tspan><title>Newspaper, Periodical, Book, and Directory Publishers: NAICS 5111</title></text><text x="300" text-anchor="middle" class="highcharts-subtitle" style="color:#666666;fill:#666666;" y="65" aria-hidden="true"></text><g class="highcharts-legend" transform="translate(110,66)"><rect fill="none" class="highcharts-legend-box" rx="0" ry="0" x="0" y="0" width="379" height="39" visibility="visible"></rect><g><g><g class="highcharts-legend-item highcharts-line-series highcharts-color-0 highcharts-series-0" transform="translate(8,3)"><path fill="none" d="M 0 11 L 16 11" class="highcharts-graph" stroke="#7cb5ec" stroke-width="2"></path><text x="21" style="color:#333333;font-size:12px;font-weight:bold;cursor:pointer;fill:#333333;" text-anchor="start" y="15" aria-hidden="true"><tspan>Labor Productivity (index)</tspan></text></g><g class="highcharts-legend-item highcharts-line-series highcharts-color-1 highcharts-series-1" transform="translate(199.6875,3)"><path fill="none" d="M 0 11 L 16 11" class="highcharts-graph" stroke="#434348" stroke-width="2"></path><text x="21" y="15" style="color:#333333;font-size:12px;font-weight:bold;cursor:pointer;fill:#333333;" text-anchor="start" aria-hidden="true"><tspan>Output (index)</tspan></text></g><g class="highcharts-legend-item highcharts-line-series highcharts-color-2 highcharts-series-2" transform="translate(8,17)"><path fill="none" d="M 0 11 L 16 11" class="highcharts-graph" stroke="#90ed7d" stroke-width="2"></path><text x="21" y="15" style="color:#333333;font-size:12px;font-weight:bold;cursor:pointer;fill:#333333;" text-anchor="start" aria-hidden="true"><tspan>Labor Hours (index)</tspan></text></g><g class="highcharts-legend-item highcharts-line-series highcharts-color-3 highcharts-series-3" transform="translate(199.6875,17)"><path fill="none" d="M 0 11 L 16 11" class="highcharts-graph" stroke="#f7a35c" stroke-width="2"></path><text x="21" y="15" style="color:#333333;font-size:12px;font-weight:bold;cursor:pointer;fill:#333333;" text-anchor="start" aria-hidden="true"><tspan>Unit Labor Cost (index)</tspan></text></g></g></g></g><g class="highcharts-axis-labels highcharts-xaxis-labels "><text x="100.53716930879624" style="color:#595959;cursor:default;font-size:11px;fill:#595959;" text-anchor="end" transform="translate(0,0) rotate(-45 100.53716930879624 506)" y="506" opacity="1" aria-hidden="true"><tspan>Annual 2010</tspan></text><text x="158.42605819768625" style="color:#595959;cursor:default;font-size:11px;fill:#595959;" text-anchor="end" transform="translate(0,0) rotate(-45 158.42605819768625 506)" y="506" opacity="1" aria-hidden="true"><tspan>Annual 2011</tspan></text><text x="216.31494708657624" style="color:#595959;cursor:default;font-size:11px;fill:#595959;" text-anchor="end" transform="translate(0,0) rotate(-45 216.31494708657624 506)" y="506" opacity="1" aria-hidden="true"><tspan>Annual 2012</tspan></text><text x="274.2038359754662" style="color:#595959;cursor:default;font-size:11px;fill:#595959;" text-anchor="end" transform="translate(0,0) rotate(-45 274.2038359754662 506)" y="506" opacity="1" aria-hidden="true"><tspan>Annual 2013</tspan></text><text x="332.0927248643462" style="color:#595959;cursor:default;font-size:11px;fill:#595959;" text-anchor="end" transform="translate(0,0) rotate(-45 332.0927248643462 506)" y="506" opacity="1" aria-hidden="true"><tspan>Annual 2014</tspan></text><text x="389.9816137532362" style="color:#595959;cursor:default;font-size:11px;fill:#595959;" text-anchor="end" transform="translate(0,0) rotate(-45 389.9816137532362 506)" y="506" opacity="1" aria-hidden="true"><tspan>Annual 2015</tspan></text><text x="447.8705026421262" style="color:#595959;cursor:default;font-size:11px;fill:#595959;" text-anchor="end" transform="translate(0,0) rotate(-45 447.8705026421262 506)" y="506" opacity="1" aria-hidden="true"><tspan>Annual 2016</tspan></text><text x="505.75939153101615" style="color:#595959;cursor:default;font-size:11px;fill:#595959;" text-anchor="end" transform="translate(0,0) rotate(-45 505.75939153101615 506)" y="506" opacity="1" aria-hidden="true"><tspan>Annual 2017</tspan></text><text x="563.6482804199062" style="color:#595959;cursor:default;font-size:11px;fill:#595959;" text-anchor="end" transform="translate(0,0) rotate(-45 563.6482804199062 506)" y="506" opacity="1" aria-hidden="true"><tspan>Annual 2018</tspan></text></g><g class="highcharts-axis-labels highcharts-yaxis-labels "><text x="54" style="color:#595959;cursor:default;font-size:11px;fill:#595959;" text-anchor="end" transform="translate(0,0)" y="495" opacity="1" aria-hidden="true">40</text><text x="54" style="color:#595959;cursor:default;font-size:11px;fill:#595959;" text-anchor="end" transform="translate(0,0)" y="433" opacity="1" aria-hidden="true">60</text><text x="54" style="color:#595959;cursor:default;font-size:11px;fill:#595959;" text-anchor="end" transform="translate(0,0)" y="371" opacity="1" aria-hidden="true">80</text><text x="54" style="color:#595959;cursor:default;font-size:11px;fill:#595959;" text-anchor="end" transform="translate(0,0)" y="309" opacity="1" aria-hidden="true">100</text><text x="54" style="color:#595959;cursor:default;font-size:11px;fill:#595959;" text-anchor="end" transform="translate(0,0)" y="246" opacity="1" aria-hidden="true">120</text><text x="54" style="color:#595959;cursor:default;font-size:11px;fill:#595959;" text-anchor="end" transform="translate(0,0)" y="184" opacity="1" aria-hidden="true">140</text><text x="54" style="color:#595959;cursor:default;font-size:11px;fill:#595959;" text-anchor="end" transform="translate(0,0)" y="122" opacity="1" aria-hidden="true">160</text></g></svg>
