<svg xmlns:xlink="http://www.w3.org/1999/xlink" version="1.1" class="highcharts-root" style="font-family:&quot;Lucida Grande&quot;, &quot;Lucida Sans Unicode&quot;, Arial, Helvetica, sans-serif;font-size:12px;" xmlns="http://www.w3.org/2000/svg" width="600" height="600" viewBox="0 0 600 600"><title id="highcharts-title-3">Software Publishers: NAICS 5112</title><desc>Created with Highcharts 6.1.0</desc><defs><clipPath id="highcharts-mrora3e-29"><rect x="0" y="0" width="521" height="394" fill="none"></rect></clipPath></defs><rect fill="#ffffff" class="highcharts-background" x="0" y="0" width="600" height="600" rx="0" ry="0"></rect><rect fill="none" class="highcharts-plot-background" x="69" y="96" width="521" height="394"></rect><g class="highcharts-grid highcharts-xaxis-grid "><path fill="none" class="highcharts-grid-line" d="M 126.5 96 L 126.5 490" opacity="1"></path><path fill="none" class="highcharts-grid-line" d="M 184.5 96 L 184.5 490" opacity="1"></path><path fill="none" class="highcharts-grid-line" d="M 242.5 96 L 242.5 490" opacity="1"></path><path fill="none" class="highcharts-grid-line" d="M 300.5 96 L 300.5 490" opacity="1"></path><path fill="none" class="highcharts-grid-line" d="M 357.5 96 L 357.5 490" opacity="1"></path><path fill="none" class="highcharts-grid-line" d="M 415.5 96 L 415.5 490" opacity="1"></path><path fill="none" class="highcharts-grid-line" d="M 473.5 96 L 473.5 490" opacity="1"></path><path fill="none" class="highcharts-grid-line" d="M 531.5 96 L 531.5 490" opacity="1"></path><path fill="none" class="highcharts-grid-line" d="M 589.5 96 L 589.5 490" opacity="1"></path><path fill="none" class="highcharts-grid-line" d="M 68.5 96 L 68.5 490" opacity="1"></path></g><g class="highcharts-grid highcharts-yaxis-grid "><path fill="none" stroke="#e6e6e6" stroke-width="1" class="highcharts-grid-line" d="M 69 490.5 L 590 490.5" opacity="1"></path><path fill="none" stroke="#e6e6e6" stroke-width="1" class="highcharts-grid-line" d="M 69 424.5 L 590 424.5" opacity="1"></path><path fill="none" stroke="#e6e6e6" stroke-width="1" class="highcharts-grid-line" d="M 69 359.5 L 590 359.5" opacity="1"></path><path fill="none" stroke="#e6e6e6" stroke-width="1" class="highcharts-grid-line" d="M 69 293.5 L 590 293.5" opacity="1"></path><path fill="none" stroke="#e6e6e6" stroke-width="1" class="highcharts-grid-line" d="M 69 227.5 L 590 227.5" opacity="1"></path><path fill="none" stroke="#e6e6e6" stroke-width="1" class="highcharts-grid-line" d="M 69 162.5 L 590 162.5" opacity="1"></path><path fill="none" stroke="#e6e6e6" stroke-width="1" class="highcharts-grid-line" d="M 69 95.5 L 590 95.5" opacity="1"></path></g><rect fill="none" class="highcharts-plot-border" x="69" y="96" width="521" height="394"></rect><g class="highcharts-axis highcharts-xaxis "><path fill="none" class="highcharts-tick" stroke="#ccd6eb" stroke-width="1" d="M 126.5 490 L 126.5 500" opacity="1"></path><path fill="none" class="highcharts-tick" stroke="#ccd6eb" stroke-width="1" d="M 184.5 490 L 184.5 500" opacity="1"></path><path fill="none" class="highcharts-tick" stroke="#ccd6eb" stroke-width="1" d="M 242.5 490 L 242.5 500" opacity="1"></path><path fill="none" class="highcharts-tick" stroke="#ccd6eb" stroke-width="1" d="M 300.5 490 L 300.5 500" opacity="1"></path><path fill="none" class="highcharts-tick" stroke="#ccd6eb" stroke-width="1" d="M 357.5 490 L 357.5 500" opacity="1"></path><path fill="none" class="highcharts-tick" stroke="#ccd6eb" stroke-width="1" d="M 415.5 490 L 415.5 500" opacity="1"></path><path fill="none" class="highcharts-tick" stroke="#ccd6eb" stroke-width="1" d="M 473.5 490 L 473.5 500" opacity="1"></path><path fill="none" class="highcharts-tick" stroke="#ccd6eb" stroke-width="1" d="M 531.5 490 L 531.5 500" opacity="1"></path><path fill="none" class="highcharts-tick" stroke="#ccd6eb" stroke-width="1" d="M 590.5 490 L 590.5 500" opacity="1"></path><path fill="none" class="highcharts-tick" stroke="#ccd6eb" stroke-width="1" d="M 68.5 490 L 68.5 500" opacity="1"></path><path fill="none" class="highcharts-axis-line" stroke="#ccd6eb" stroke-width="1" d="M 69 490.5 L 590 490.5"></path></g><g class="highcharts-axis highcharts-yaxis "><text x="23.75" text-anchor="middle" transform="translate(0,0) rotate(270 23.75 293)" class="highcharts-axis-title" style="color:#595959;fill:#595959;" y="293" aria-hidden="true"><tspan>Index</tspan></text><path fill="none" class="highcharts-axis-line" d="M 69 96 L 69 490"></path></g><g class="highcharts-series-group"><g class="highcharts-series highcharts-series-0 highcharts-line-series highcharts-color-0 " transform="translate(69,96) scale(1 1)" clip-path="url(#highcharts-mrora3e-29)"><path fill="none" d="M 28.944444444444 271.21646666666663 L 86.833333333333 255.67973333333336 L 144.72222222222 261.17997333333335 L 202.61111111111 260.01636 L 260.5 242.95878666666673 L 318.38888888889 256.87486666666666 L 376.27777777778 252.50409333333334 L 434.16666666667 261.17209333333335 L 492.05555555556 248.03088" class="highcharts-graph" stroke="#7cb5ec" stroke-width="2" stroke-linejoin="round" stroke-linecap="round" role="region" tabindex="-1" aria-label="Labor Productivity (index), line 1 of 4 with 9 data points."></path></g><g class="highcharts-markers highcharts-series-0 highcharts-line-series highcharts-color-0 " transform="translate(69,96) scale(1 1)" clip-path="none"></g><g class="highcharts-series highcharts-series-1 highcharts-line-series highcharts-color-1 " transform="translate(69,96) scale(1 1)" clip-path="url(#highcharts-mrora3e-29)"><path fill="none" d="M 28.944444444444 271.6892666666667 L 86.833333333333 240.18765333333337 L 144.72222222222 225.1210933333333 L 202.61111111111 201.7857866666667 L 260.5 172.92397333333335 L 318.38888888889 159.60152000000002 L 376.27777777778 128.9903466666667 L 434.16666666667 115.26864 L 492.05555555556 41.69308000000001" class="highcharts-graph" stroke="#434348" stroke-width="2" stroke-linejoin="round" stroke-linecap="round" role="region" tabindex="-1" aria-label="Output (index), line 2 of 4 with 9 data points."></path></g><g class="highcharts-markers highcharts-series-1 highcharts-line-series highcharts-color-1 " transform="translate(69,96) scale(1 1)" clip-path="none"></g><g class="highcharts-series highcharts-series-2 highcharts-line-series highcharts-color-2 " transform="translate(69,96) scale(1 1)" clip-path="url(#highcharts-mrora3e-29)"><path fill="none" d="M 28.944444444444 328.72208 L 86.833333333333 316.1981333333333 L 144.72222222222 299.6159866666667 L 202.61111111111 282.12238666666667 L 260.5 275.4795466666667 L 318.38888888889 251.86318666666668 L 376.27777777778 232.49152 L 434.16666666667 212.1401066666667 L 492.05555555556 170.30518666666666" class="highcharts-graph" stroke="#90ed7d" stroke-width="2" stroke-linejoin="round" stroke-linecap="round" role="region" tabindex="-1" aria-label="Labor Hours (index), line 3 of 4 with 9 data points."></path></g><g class="highcharts-markers highcharts-series-2 highcharts-line-series highcharts-color-2 " transform="translate(69,96) scale(1 1)" clip-path="none"></g><g class="highcharts-series highcharts-series-3 highcharts-line-series highcharts-color-3 " transform="translate(69,96) scale(1 1)" clip-path="url(#highcharts-mrora3e-29)"><path fill="none" d="M 28.944444444444 339.69892 L 86.833333333333 346.57816 L 144.72222222222 336.2501066666667 L 202.61111111111 335.8797466666667 L 260.5 327.14345333333335 L 318.38888888889 301.68054666666666 L 376.27777777778 301.62801333333334 L 434.16666666667 272.16206666666665 L 492.05555555556 270.6648666666667" class="highcharts-graph" stroke="#f7a35c" stroke-width="2" stroke-linejoin="round" stroke-linecap="round" role="region" tabindex="-1" aria-label="Unit Labor Cost (index), line 4 of 4 with 9 data points."></path></g><g class="highcharts-markers highcharts-series-3 highcharts-line-series highcharts-color-3 " transform="translate(69,96) scale(1 1)" clip-path="none"></g></g><text x="300" text-anchor="middle" class="highcharts-title" style="color:#333333;font-size:18px;fill:#333333;" y="24" aria-hidden="true"><tspan>Software Publishers: NAICS 5112</tspan></text><text x="300" text-anchor="middle" class="highcharts-subtitle" style="color:#666666;fill:#666666;" y="44" aria-hidden="true"></text><g class="highcharts-legend" transform="translate(110,45)"><rect fill="none" class="highcharts-legend-box" rx="0" ry="0" x="0" y="0" width="379" height="39" visibility="visible"></rect><g><g><g class="highcharts-legend-item highcharts-line-series highcharts-color-0 highcharts-series-0" transform="translate(8,3)"><path fill="none" d="M 0 11 L 16 11" class="highcharts-graph" stroke="#7cb5ec" stroke-width="2"></path><text x="21" style="color:#333333;font-size:12px;font-weight:bold;cursor:pointer;fill:#333333;" text-anchor="start" y="15" aria-hidden="true"><tspan>Labor Productivity (index)</tspan></text></g><g class="highcharts-legend-item highcharts-line-series highcharts-color-1 highcharts-series-1" transform="translate(199.6875,3)"><path fill="none" d="M 0 11 L 16 11" class="highcharts-graph" stroke="#434348" stroke-width="2"></path><text x="21" y="15" style="color:#333333;font-size:12px;font-weight:bold;cursor:pointer;fill:#333333;" text-anchor="start" aria-hidden="true"><tspan>Output (index)</tspan></text></g><g class="highcharts-legend-item highcharts-line-series highcharts-color-2 highcharts-series-2" transform="translate(8,17)"><path fill="none" d="M 0 11 L 16 11" class="highcharts-graph" stroke="#90ed7d" stroke-width="2"></path><text x="21" y="15" style="color:#333333;font-size:12px;font-weight:bold;cursor:pointer;fill:#333333;" text-anchor="start" aria-hidden="true"><tspan>Labor Hours (index)</tspan></text></g><g class="highcharts-legend-item highcharts-line-series highcharts-color-3 highcharts-series-3" transform="translate(199.6875,17)"><path fill="none" d="M 0 11 L 16 11" class="highcharts-graph" stroke="#f7a35c" stroke-width="2"></path><text x="21" y="15" style="color:#333333;font-size:12px;font-weight:bold;cursor:pointer;fill:#333333;" text-anchor="start" aria-hidden="true"><tspan>Unit Labor Cost (index)</tspan></text></g></g></g></g><g class="highcharts-axis-labels highcharts-xaxis-labels "><text x="100.53716930879624" style="color:#595959;cursor:default;font-size:11px;fill:#595959;" text-anchor="end" transform="translate(0,0) rotate(-45 100.53716930879624 506)" y="506" opacity="1" aria-hidden="true"><tspan>Annual 2010</tspan></text><text x="158.42605819768625" style="color:#595959;cursor:default;font-size:11px;fill:#595959;" text-anchor="end" transform="translate(0,0) rotate(-45 158.42605819768625 506)" y="506" opacity="1" aria-hidden="true"><tspan>Annual 2011</tspan></text><text x="216.31494708657624" style="color:#595959;cursor:default;font-size:11px;fill:#595959;" text-anchor="end" transform="translate(0,0) rotate(-45 216.31494708657624 506)" y="506" opacity="1" aria-hidden="true"><tspan>Annual 2012</tspan></text><text x="274.2038359754662" style="color:#595959;cursor:default;font-size:11px;fill:#595959;" text-anchor="end" transform="translate(0,0) rotate(-45 274.2038359754662 506)" y="506" opacity="1" aria-hidden="true"><tspan>Annual 2013</tspan></text><text x="332.0927248643462" style="color:#595959;cursor:default;font-size:11px;fill:#595959;" text-anchor="end" transform="translate(0,0) rotate(-45 332.0927248643462 506)" y="506" opacity="1" aria-hidden="true"><tspan>Annual 2014</tspan></text><text x="389.9816137532362" style="color:#595959;cursor:default;font-size:11px;fill:#595959;" text-anchor="end" transform="translate(0,0) rotate(-45 389.9816137532362 506)" y="506" opacity="1" aria-hidden="true"><tspan>Annual 2015</tspan></text><text x="447.8705026421262" style="color:#595959;cursor:default;font-size:11px;fill:#595959;" text-anchor="end" transform="translate(0,0) rotate(-45 447.8705026421262 506)" y="506" opacity="1" aria-hidden="true"><tspan>Annual 2016</tspan></text><text x="505.75939153101615" style="color:#595959;cursor:default;font-size:11px;fill:#595959;" text-anchor="end" transform="translate(0,0) rotate(-45 505.75939153101615 506)" y="506" opacity="1" aria-hidden="true"><tspan>Annual 2017</tspan></text><text x="563.6482804199062" style="color:#595959;cursor:default;font-size:11px;fill:#595959;" text-anchor="end" transform="translate(0,0) rotate(-45 563.6482804199062 506)" y="506" opacity="1" aria-hidden="true"><tspan>Annual 2018</tspan></text></g><g class="highcharts-axis-labels highcharts-yaxis-labels "><text x="54" style="color:#595959;cursor:default;font-size:11px;fill:#595959;" text-anchor="end" transform="translate(0,0)" y="495" opacity="1" aria-hidden="true">75</text><text x="54" style="color:#595959;cursor:default;font-size:11px;fill:#595959;" text-anchor="end" transform="translate(0,0)" y="429" opacity="1" aria-hidden="true">100</text><text x="54" style="color:#595959;cursor:default;font-size:11px;fill:#595959;" text-anchor="end" transform="translate(0,0)" y="364" opacity="1" aria-hidden="true">125</text><text x="54" style="color:#595959;cursor:default;font-size:11px;fill:#595959;" text-anchor="end" transform="translate(0,0)" y="298" opacity="1" aria-hidden="true">150</text><text x="54" style="color:#595959;cursor:default;font-size:11px;fill:#595959;" text-anchor="end" transform="translate(0,0)" y="232" opacity="1" aria-hidden="true">175</text><text x="54" style="color:#595959;cursor:default;font-size:11px;fill:#595959;" text-anchor="end" transform="translate(0,0)" y="167" opacity="1" aria-hidden="true">200</text><text x="54" style="color:#595959;cursor:default;font-size:11px;fill:#595959;" text-anchor="end" transform="translate(0,0)" y="101" opacity="1" aria-hidden="true">225</text></g></svg>
